<?xml version="1.0" standalone="no"?>
<!DOCTYPE svg PUBLIC "-//W3C//DTD SVG 20010904//EN"
 "http://www.w3.org/TR/2001/REC-SVG-20010904/DTD/svg10.dtd">
<svg version="1.0" xmlns="http://www.w3.org/2000/svg"
 width="306.000000pt" height="306.000000pt" viewBox="0 0 306.000000 306.000000"
 preserveAspectRatio="xMidYMid meet">
<metadata>
Created by potrace 1.11, written by Peter Selinger 2001-2013
</metadata>
<g transform="translate(0.000000,306.000000) scale(0.100000,-0.100000)"
fill="#000000" stroke="none">
<path d="M1375 2980 c-16 -18 -31 -20 -135 -20 -129 0 -180 -12 -238 -57 -19
-14 -62 -39 -96 -56 -112 -56 -348 -319 -392 -438 -24 -65 -19 -238 12 -439
14 -91 23 -178 20 -195 -5 -26 -4 -27 5 -10 6 11 19 31 27 45 l16 25 9 -35 c5
-19 11 -60 13 -90 l4 -55 -18 39 -18 40 -17 -42 c-9 -23 -16 -66 -16 -95 l1
-52 8 52 c13 86 20 110 30 93 22 -40 21 -81 -1 -135 -22 -54 -22 -55 -5 -117
10 -35 21 -72 24 -82 4 -15 1 -18 -11 -13 -10 4 -17 2 -17 -3 0 -6 5 -10 11
-10 7 0 9 -11 5 -30 -3 -19 -2 -29 4 -25 6 4 10 -9 10 -29 0 -44 -13 -46 -30
-6 -7 17 -15 28 -17 26 -3 -3 6 -25 20 -50 l25 -45 -24 -15 c-12 -9 -35 -36
-49 -60 -16 -27 -49 -60 -88 -86 -115 -80 -126 -97 -167 -267 -6 -23 -22 -56
-37 -73 -14 -17 -30 -52 -34 -77 -5 -26 -23 -68 -39 -94 -17 -26 -34 -63 -37
-83 -5 -31 -13 -40 -69 -71 l-64 -36 0 -154 0 -155 1530 0 1530 0 0 99 0 100
-82 83 c-114 115 -170 149 -349 217 -85 32 -171 69 -192 81 -32 19 -48 22 -95
17 l-57 -5 -40 55 c-22 31 -63 76 -91 102 l-51 47 15 39 c23 62 54 213 59 285
3 36 10 71 15 78 8 9 7 11 -6 6 -11 -4 -16 -1 -16 12 0 16 -2 17 -10 4 -5 -8
-10 -24 -10 -35 0 -11 -14 -40 -30 -65 -16 -25 -25 -47 -20 -48 6 -2 -2 -25
-16 -52 -14 -27 -23 -53 -20 -58 4 -6 -6 -12 -21 -14 -22 -2 -29 -9 -31 -30
-2 -16 -9 -28 -17 -28 -7 0 -16 -14 -20 -30 -5 -23 -11 -29 -24 -25 -10 3 -20
-3 -26 -18 -6 -12 -18 -21 -28 -21 -14 2 -17 -7 -17 -43 0 -36 -3 -44 -15 -39
-10 4 -15 -1 -15 -14 0 -11 -4 -20 -9 -20 -4 0 -6 -12 -3 -27 5 -26 4 -27 -13
-13 -17 14 -18 13 -11 -24 6 -31 5 -38 -7 -33 -10 4 -13 -1 -9 -19 3 -17 0
-24 -11 -24 -8 0 -17 -5 -19 -12 -4 -11 -90 -15 -143 -6 -22 3 -85 56 -85 70
0 15 27 38 44 38 9 0 25 9 37 21 14 14 29 19 45 16 32 -6 21 9 -24 32 -23 12
-44 16 -57 11 -11 -4 -24 -5 -29 -2 -5 3 -39 6 -75 7 -36 1 -76 5 -89 9 -16 5
-22 4 -20 -5 2 -9 -11 -14 -37 -16 -74 -5 -92 -9 -121 -32 l-29 -22 34 7 c21
4 31 2 27 -4 -3 -5 12 -12 34 -16 29 -5 38 -10 34 -21 -4 -10 0 -15 11 -15 9
0 24 -7 33 -16 15 -15 14 -18 -8 -36 -22 -18 -25 -18 -30 -3 -5 14 -8 14 -24
-4 -11 -12 -27 -21 -37 -21 -10 0 -20 -4 -23 -9 -10 -16 -56 0 -56 20 0 12 -7
19 -20 19 -13 0 -20 7 -20 20 0 11 -4 20 -9 20 -5 0 -13 9 -16 20 -5 17 -10
18 -26 9 -33 -17 -52 -4 -44 31 5 25 4 29 -9 24 -10 -4 -16 -1 -16 10 0 10 -6
13 -16 9 -10 -4 -17 1 -21 16 -3 11 -11 21 -19 21 -7 0 -16 18 -21 43 -5 23
-14 43 -21 43 -7 1 -16 2 -22 3 -5 0 -7 8 -4 16 4 11 0 15 -16 15 -20 0 -22 4
-16 30 4 22 2 30 -9 30 -12 0 -15 14 -15 60 0 61 -8 72 -30 45 -28 -34 -56 -3
-65 74 -5 44 -10 58 -20 55 -10 -4 -15 12 -21 66 -5 52 -10 70 -20 66 -19 -7
-23 15 -17 81 l6 58 -22 -19 -21 -19 0 176 c0 107 4 177 10 177 15 0 32 -40
27 -66 -2 -13 0 -21 4 -18 5 3 11 -8 15 -23 14 -58 53 -120 92 -145 121 -81
357 -98 466 -34 52 30 69 55 97 140 18 55 26 67 52 75 76 27 111 4 133 -89 31
-135 99 -186 264 -196 164 -11 316 41 359 123 l20 38 2 -120 c1 -66 3 -112 6
-103 2 9 14 19 26 21 l22 4 -22 2 c-21 1 -34 21 -15 21 5 0 18 19 31 43 12 23
16 34 9 23 -46 -67 -47 -67 -46 9 0 39 3 83 7 100 l6 29 19 -42 c27 -60 31
-45 5 19 -22 54 -26 90 -12 112 4 7 13 -12 20 -43 l12 -55 -6 50 c-9 78 -9 88
5 92 6 3 12 -4 13 -14 1 -27 29 67 29 98 0 20 -6 28 -25 33 -30 8 -30 14 -9
143 8 54 13 106 10 117 -3 10 1 44 9 73 18 67 17 234 -1 286 -8 21 -23 51 -34
67 -11 15 -20 41 -20 57 0 61 -59 136 -156 200 -16 11 -17 12 -1 7 31 -11 18
5 -25 30 -24 13 -79 33 -123 44 -44 11 -93 26 -110 32 -27 11 -28 13 -10 20
35 13 -89 53 -179 58 -61 3 -86 9 -114 28 -43 30 -92 31 -117 4z m-229 -531
c103 -74 126 -84 199 -85 39 0 96 -6 128 -13 99 -22 245 12 342 79 47 32 73
32 115 2 43 -32 71 -83 68 -122 -3 -30 -8 -37 -38 -47 l-35 -12 29 0 c16 -1
45 -6 63 -13 32 -12 33 -14 33 -68 0 -30 7 -68 15 -84 8 -15 15 -42 15 -60 1
-17 10 -56 21 -86 12 -30 22 -68 22 -85 2 -30 2 -30 -60 -33 -42 -2 -72 2 -92
13 -54 27 -258 16 -394 -22 -55 -15 -59 -18 -55 -43 4 -23 1 -26 -29 -28 -21
-2 -33 2 -33 10 0 10 -2 10 -8 1 -6 -9 -46 -12 -85 -4 -4 0 -12 12 -17 26 -17
44 -149 70 -439 85 -96 5 -175 11 -177 12 -1 2 1 18 4 37 6 25 16 37 42 50 49
23 64 59 52 127 -10 59 -10 59 20 43 18 -10 20 -9 15 5 -7 17 12 22 29 7 5 -5
20 -12 34 -16 l25 -7 -21 23 c-19 22 -40 84 -25 76 23 -12 100 -45 121 -52 22
-7 23 -6 11 9 -12 14 -9 16 35 16 50 0 104 22 159 63 l31 22 -42 2 c-24 1 -63
11 -89 22 -37 16 -50 29 -66 65 -13 30 -17 54 -13 73 12 49 35 52 90 12z
m-292 -651 c-25 -23 -54 -53 -64 -68 -18 -25 -17 -25 53 10 70 34 76 35 182
34 74 0 131 -6 175 -19 36 -10 80 -20 98 -22 l32 -5 0 -63 c0 -50 -6 -74 -32
-126 -27 -53 -41 -68 -79 -87 -115 -58 -318 -38 -441 43 -30 20 -41 36 -54 81
-24 82 -16 185 16 219 27 28 66 43 122 44 l38 1 -46 -42z m1272 -39 c13 -12
24 -33 24 -46 0 -13 4 -23 8 -23 15 0 -6 -147 -27 -188 -25 -49 -91 -85 -201
-108 -101 -21 -186 -13 -268 27 -54 26 -66 37 -89 82 -29 57 -43 170 -25 203
20 37 227 80 339 71 44 -3 86 -16 138 -41 l76 -35 -20 28 c-11 15 -27 34 -36
41 -8 7 -15 16 -15 20 0 15 72 -8 96 -31z m-1507 -281 l-1 -103 -20 58 c-19
56 -19 60 -3 103 9 24 19 44 21 44 2 0 4 -46 3 -102z"/>
<path d="M1075 1725 c-5 -2 -37 -7 -70 -11 -33 -3 -54 -9 -47 -11 6 -3 12 -13
12 -23 0 -10 9 -28 21 -41 l21 -24 -16 25 c-20 31 -20 56 0 64 30 12 44 6 44
-18 0 -54 59 -61 75 -8 6 21 15 32 27 32 41 0 30 -72 -14 -90 -21 -8 -22 -9
-3 -9 25 -1 56 47 53 83 -2 21 -8 26 -28 26 -14 0 -34 2 -45 5 -11 2 -24 2
-30 0z"/>
<path d="M1029 1607 c5 -5 21 -7 37 -5 27 3 26 4 -8 9 -22 3 -34 1 -29 -4z"/>
<path d="M978 1603 c7 -3 16 -2 19 1 4 3 -2 6 -13 5 -11 0 -14 -3 -6 -6z"/>
<path d="M1715 1720 c-15 -7 -11 -9 20 -7 39 2 40 2 40 -33 0 -32 2 -35 29
-35 24 0 31 5 38 30 4 16 15 36 25 42 14 11 4 13 -58 12 -41 0 -83 -4 -94 -9z"/>
<path d="M1897 1700 c3 -11 7 -20 8 -20 1 0 5 9 8 20 3 12 0 20 -8 20 -8 0
-11 -8 -8 -20z"/>
<path d="M1635 1692 c-5 -4 -17 -16 -25 -27 -11 -15 -7 -14 13 4 24 22 32 31
25 31 -2 0 -7 -4 -13 -8z"/>
<path d="M1711 1663 c-2 -23 22 -63 38 -63 13 0 12 2 -2 13 -9 6 -21 23 -26
37 -5 14 -10 20 -10 13z"/>
<path d="M1885 1648 c-6 -13 -26 -31 -45 -40 l-35 -18 34 0 c19 0 31 3 28 7
-4 3 2 17 14 29 12 12 20 27 18 33 -2 6 -9 1 -14 -11z"/>
<path d="M1738 1523 c7 -3 16 -2 19 1 4 3 -2 6 -13 5 -11 0 -14 -3 -6 -6z"/>
<path d="M523 1704 c-7 -21 -14 -57 -17 -79 -4 -24 2 -12 14 30 11 39 18 74
17 79 -2 5 -8 -9 -14 -30z"/>
<path d="M2261 1634 c0 -11 3 -14 6 -6 3 7 2 16 -1 19 -3 4 -6 -2 -5 -13z"/>
<path d="M2272 1570 c0 -14 2 -19 5 -12 2 6 2 18 0 25 -3 6 -5 1 -5 -13z"/>
<path d="M2282 1450 c0 -14 2 -19 5 -12 2 6 2 18 0 25 -3 6 -5 1 -5 -13z"/>
<path d="M1391 1248 c-1 -3 8 -27 19 -53 24 -56 24 -59 4 -51 -10 4 -13 2 -8
-6 5 -8 -25 -10 -117 -5 -106 5 -134 3 -191 -14 -38 -11 -68 -25 -68 -30 0 -6
-9 -24 -20 -39 -29 -40 -34 -79 -16 -122 25 -59 36 -56 36 12 0 40 4 62 13 64
75 20 102 24 108 14 7 -11 68 -7 103 8 14 5 17 4 11 -5 -6 -10 -2 -11 15 -6
61 19 168 25 209 11 22 -8 56 -10 86 -7 28 4 70 3 95 -1 25 -5 68 -10 97 -11
53 -4 83 -19 83 -43 0 -8 5 -14 10 -14 6 0 10 -19 10 -41 0 -35 2 -40 15 -29
20 17 30 92 15 121 -19 38 -80 87 -114 94 -17 3 -58 12 -91 20 -61 14 -113 14
-172 1 -22 -5 -33 -4 -33 4 0 6 -8 9 -17 6 -14 -5 -25 9 -50 62 -17 37 -32 64
-32 60z"/>
<path d="M1296 1192 c-3 -5 8 -6 25 -4 16 2 29 6 29 8 0 8 -49 4 -54 -4z"/>
<path d="M1560 1196 c0 -2 9 -6 20 -9 11 -3 18 -1 14 4 -5 9 -34 13 -34 5z"/>
<path d="M1080 965 c26 -28 42 -33 34 -10 -4 10 0 15 12 16 14 1 13 3 -6 9
-14 4 -34 8 -44 9 -18 1 -18 -1 4 -24z"/>
<path d="M1749 971 c10 -7 11 -13 1 -32 -11 -22 -10 -21 19 5 17 17 31 31 31
33 0 2 -15 3 -32 3 -22 0 -29 -3 -19 -9z"/>
<path d="M1168 963 c7 -3 16 -2 19 1 4 3 -2 6 -13 5 -11 0 -14 -3 -6 -6z"/>
<path d="M1218 953 c7 -3 16 -2 19 1 4 3 -2 6 -13 5 -11 0 -14 -3 -6 -6z"/>
<path d="M1137 919 c12 -15 73 -53 73 -46 0 2 -19 17 -42 32 -24 16 -38 22
-31 14z"/>
</g>
</svg>
